<svg width="51" height="51" viewBox="0 0 51 51" fill="none" xmlns="http://www.w3.org/2000/svg">
<path d="M35.061 48.874H15.9373C15.4517 48.874 15.0269 48.544 14.9071 48.074C14.8868 47.9915 12.7499 39.6725 8.56306 26.8936C8.451 26.5511 8.51943 26.176 8.74515 25.8959C8.74983 25.889 9.49692 24.9388 9.85015 23.6461C10.289 22.0421 9.94817 20.6905 8.8089 19.5131C7.98242 18.6602 7.93262 17.3535 8.65948 15.6314C9.12796 14.5209 9.9404 13.1739 11.0719 11.6267C12.9552 9.05243 15.075 6.80339 15.1637 6.70846C15.5668 6.28352 16.2361 6.2625 16.6625 6.66334C16.7046 6.70228 20.9613 10.626 25.422 10.626C29.9123 10.626 34.3061 6.69451 34.3496 6.65477C34.7792 6.26718 35.4375 6.29288 35.836 6.71235C35.9247 6.80728 38.043 9.05552 39.9262 11.6283C41.755 14.1272 43.9791 17.6633 42.1893 19.5131C41.0515 20.6889 40.706 22.099 41.1636 23.7045C41.5231 24.966 42.2453 25.8866 42.2532 25.8959C42.4789 26.176 42.5473 26.5511 42.4353 26.8936C38.2469 39.6725 36.1115 47.9915 36.0897 48.074C35.9699 48.544 35.5466 48.874 35.061 48.874Z" fill="#FFCE54"/>
<path d="M40.7841 32.0321L29.1997 25.6322C28.7266 25.3707 28.132 25.5069 27.8192 25.9489L25.6947 28.9535C25.5655 29.1356 25.4985 29.352 25.4985 29.5714C25.5001 29.352 25.4332 29.1356 25.304 28.9535L23.1795 25.9489C22.8666 25.5069 22.2721 25.3707 21.7973 25.6322L10.2145 32.0321C10.9087 34.2344 11.5266 36.2515 12.0682 38.0569L24.974 30.4835C25.2308 30.3325 25.4129 30.0819 25.4751 29.7909C25.4907 29.7193 25.4984 29.6461 25.4984 29.5729C25.5 29.646 25.5078 29.7193 25.5233 29.7909C25.5856 30.0819 25.7677 30.3326 26.023 30.4835L38.9303 38.0569C39.472 36.2516 40.0883 34.2345 40.7841 32.0321Z" fill="#E6E9ED"/>
<path d="M50.7839 22.6773C50.4353 19.742 49.7193 17.5443 48.6563 16.1444C48.3015 15.6774 47.6353 15.5864 47.1668 15.9413C46.7777 16.237 46.6516 16.7482 46.8244 17.1809L42.4385 18.9327L42.2969 18.7288C41.9607 18.2479 41.2977 18.1311 40.8167 18.4673C40.3358 18.8035 40.2191 19.4657 40.5553 19.9468L42.7746 23.121C42.854 23.2339 42.9551 23.3304 43.0704 23.4051L49.3599 27.4548C49.5342 27.5685 49.735 27.6245 49.9357 27.6245C50.1054 27.6245 50.2766 27.584 50.4322 27.5016C50.7731 27.3211 50.9878 26.9716 50.9972 26.5879C50.9987 26.5154 51.0361 24.7957 50.7839 22.6773Z" fill="#434A54"/>
<path d="M10.1834 18.4672C9.70244 18.131 9.03942 18.2478 8.70323 18.7287L8.56158 18.9326L4.17556 17.1808C4.34828 16.7481 4.22227 16.2369 3.83319 15.9411C3.36471 15.5863 2.69851 15.6774 2.34369 16.1442C1.28073 17.5442 0.564717 19.7419 0.216075 22.6772C-0.0360431 24.7956 0.00131143 26.5153 0.00280561 26.5877C0.0121691 26.9714 0.226933 27.3207 0.567805 27.5013C0.7234 27.5838 0.894633 27.6242 1.06427 27.6242C1.26509 27.6242 1.46581 27.5683 1.64013 27.4546L7.92964 23.4049C8.04479 23.3302 8.146 23.2336 8.22539 23.1208L10.4448 19.9465C10.781 19.4657 10.6643 18.8034 10.1834 18.4672Z" fill="#434A54"/>
<path d="M25.4984 17.0003C26.0852 17.0003 26.5615 16.5249 26.5615 15.938V10.545C26.1832 10.5964 25.8035 10.6259 25.4221 10.6259C25.0922 10.6259 24.7622 10.6033 24.4368 10.5637V15.9379C24.4369 16.5248 24.9117 17.0003 25.4984 17.0003Z" fill="#F6BB42"/>
<path d="M42.4105 12.8221C42.325 12.4719 42.0666 12.1894 41.7257 12.0728L37.5451 10.6347C37.1404 10.4954 36.6922 10.6121 36.4073 10.9319L25.7692 22.8493C25.4393 23.219 25.4081 23.7668 25.6945 24.1708L27.819 27.1762C28.0027 27.436 28.2938 27.5995 28.6129 27.6213C28.6378 27.6244 28.6611 27.6244 28.686 27.6244C28.9786 27.6244 29.2587 27.5046 29.4596 27.2898L42.1537 13.8051C42.4012 13.5427 42.4977 13.1723 42.4105 12.8221Z" fill="#E6E9ED"/>
<path d="M25.2291 22.8493L15.0191 11.4112C14.7125 11.0687 14.2206 10.9613 13.8004 11.145C13.3802 11.3295 13.125 11.7629 13.1685 12.2197L13.7911 18.734C13.8129 18.969 13.9125 19.1901 14.0744 19.3613L21.5373 27.2896C21.7396 27.5044 22.0198 27.6242 22.3109 27.6242C22.3358 27.6242 22.3607 27.6242 22.3856 27.6211C22.7032 27.5993 22.9957 27.436 23.1794 27.176L25.3039 24.1706C25.5902 23.7668 25.5592 23.219 25.2291 22.8493Z" fill="#E6E9ED"/>
<path d="M14.5569 46.748C14.7857 47.5977 14.9025 48.0554 14.9072 48.0741C15.027 48.5442 15.4518 48.8741 15.9374 48.8741H35.0611C35.5467 48.8741 35.97 48.5442 36.0899 48.0741C36.0945 48.0554 36.2128 47.5978 36.4416 46.748H14.5569Z" fill="#F6BB42"/>
<path d="M50.9583 15.6509C50.3263 13.3971 48.5738 11.3357 45.7489 9.52412C43.7147 8.219 41.8689 7.53736 41.7911 7.50927C41.2401 7.30775 40.63 7.59095 40.4276 8.142C40.3233 8.42759 40.3498 8.72952 40.4758 8.98173L36.0182 11.2127C35.9684 11.1139 35.903 11.0205 35.822 10.9381C35.4064 10.5225 34.7341 10.5209 34.3186 10.9358L32.1863 13.0604C31.8268 13.4184 31.7707 13.9802 32.0524 14.4028L36.3014 20.7771C36.5022 21.079 36.8384 21.2503 37.1854 21.2503C37.2975 21.2503 37.4111 21.2323 37.5216 21.1958L50.2718 16.9459C50.8089 16.7668 51.1124 16.1972 50.9583 15.6509Z" fill="#DA4453"/>
<path d="M16.6814 10.936C16.2658 10.5212 15.5934 10.5228 15.1794 10.9383C15.0969 11.0208 15.0316 11.1141 14.9818 11.2129L10.5241 8.98191C10.6502 8.72979 10.6766 8.42786 10.5723 8.14218C10.37 7.59122 9.7599 7.30792 9.20895 7.50944C9.13115 7.53743 7.28524 8.21918 5.25096 9.52429C2.42616 11.3359 0.673688 13.3974 0.0417488 15.651C-0.110757 16.1973 0.191167 16.767 0.728176 16.946L13.4783 21.1958C13.5888 21.2324 13.7025 21.2503 13.8145 21.2503C14.1616 21.2503 14.4978 21.0791 14.6986 20.7772L18.9475 14.4029C19.2292 13.9803 19.1732 13.4184 18.8137 13.0604L16.6814 10.936Z" fill="#DA4453"/>
<path d="M44.0353 6.48753C43.7193 6.33034 36.2501 2.62995 30.8821 2.1304C30.3498 2.08139 29.8642 2.43391 29.7475 2.95449L28.4805 8.55209C28.3747 9.02216 28.5988 9.50458 29.0253 9.72791L34.5768 12.6298C34.7309 12.71 34.899 12.7504 35.0687 12.7504C35.2322 12.7504 35.3941 12.7131 35.5435 12.6384L44.0353 8.38862C44.3964 8.20813 44.6236 7.83996 44.6236 7.43763C44.6221 7.03539 44.3949 6.66723 44.0353 6.48753Z" fill="#ED5564"/>
<path d="M21.254 2.9545C21.1357 2.43383 20.6502 2.0813 20.1179 2.13041C14.7499 2.62997 7.28065 6.33036 6.96468 6.48755C6.60518 6.66735 6.37797 7.03541 6.37637 7.43775C6.37637 7.84008 6.60359 8.20814 6.96468 8.38874L15.4565 12.6385C15.6059 12.7132 15.7678 12.7506 15.9313 12.7506C16.1009 12.7506 16.269 12.7101 16.4231 12.6299L21.9748 9.72803C22.4013 9.5047 22.6254 9.02228 22.5196 8.55221L21.254 2.9545Z" fill="#ED5564"/>
<path d="M25.4984 22.3123C23.156 22.3123 21.2494 24.219 21.2494 26.5621C21.2494 28.9052 23.156 30.8119 25.4984 30.8119C27.8424 30.8119 29.7491 28.9052 29.7491 26.5621C29.7491 24.219 27.8425 22.3123 25.4984 22.3123Z" fill="#ED5564"/>
<path d="M26.5615 26.562C26.5615 27.1481 26.0852 27.6243 25.4984 27.6243C24.9116 27.6243 24.437 27.1481 24.437 26.562C24.437 25.9761 24.9117 25.4999 25.4984 25.4999C26.0851 25.4999 26.5615 25.9761 26.5615 26.562Z" fill="#DA4453"/>
</svg>
