<svg width="51" height="51" viewBox="0 0 51 51" fill="none" xmlns="http://www.w3.org/2000/svg">
<path d="M27.2583 42.5823H2.49767C1.1182 42.5823 0 41.4641 0 40.0847V36.4253C0 35.0458 1.1182 33.9276 2.49767 33.9276H27.2582C28.6376 33.9276 29.7558 35.0458 29.7558 36.4253V40.0847C29.7558 41.4641 28.6376 42.5823 27.2583 42.5823Z" fill="#F39624"/>
<path d="M27.2583 40.1335H2.49767C1.1182 40.1335 0 39.0153 0 37.6358V40.0847C0 41.464 1.1182 42.5822 2.49767 42.5822H27.2582C28.6375 42.5822 29.7558 41.464 29.7558 40.0847V37.6358C29.7558 39.0153 28.6376 40.1335 27.2583 40.1335Z" fill="#E9751C"/>
<path d="M27.2583 33.9275H14.8779V42.5822H27.2583C28.6377 42.5822 29.7559 41.464 29.7559 40.0847V36.4253C29.7558 35.0457 28.6377 33.9275 27.2583 33.9275Z" fill="#E9751C"/>
<path d="M30.041 34.0115H5.28041C3.90094 34.0115 2.78275 32.8933 2.78275 31.5138V27.8543C2.78275 26.475 3.90094 25.3567 5.28041 25.3567H30.0409C31.4203 25.3567 32.5386 26.4749 32.5386 27.8543V31.5137C32.5386 32.8933 31.4204 34.0115 30.041 34.0115Z" fill="#F7C02D"/>
<path d="M30.041 31.5626H5.28041C3.90094 31.5626 2.78275 30.4444 2.78275 29.065V31.5138C2.78275 32.8932 3.90094 34.0114 5.28041 34.0114H30.0409C31.4203 34.0114 32.5386 32.8932 32.5386 31.5138V29.065C32.5386 30.4444 31.4204 31.5626 30.041 31.5626Z" fill="#F39624"/>
<path d="M30.041 25.3567H17.6607V34.0114H30.041C31.4204 34.0114 32.5387 32.8932 32.5387 31.5138V27.8543C32.5386 26.4749 31.4204 25.3567 30.041 25.3567Z" fill="#F39624"/>
<path d="M27.2583 25.4406H2.49767C1.1182 25.4406 0 24.3224 0 22.943V19.2836C0 17.9042 1.1182 16.7859 2.49767 16.7859H27.2582C28.6376 16.7859 29.7558 17.9041 29.7558 19.2836V22.943C29.7558 24.3224 28.6376 25.4406 27.2583 25.4406Z" fill="#F39624"/>
<path d="M27.2583 22.9918H2.49767C1.1182 22.9918 0 21.8736 0 20.4941V22.943C0 24.3223 1.1182 25.4405 2.49767 25.4405H27.2582C28.6375 25.4405 29.7558 24.3223 29.7558 22.943V20.4941C29.7558 21.8736 28.6376 22.9918 27.2583 22.9918Z" fill="#E9751C"/>
<path d="M27.2583 16.7858H14.8779V25.4405H27.2583C28.6377 25.4405 29.7559 24.3223 29.7559 22.943V19.2836C29.7558 17.904 28.6377 16.7858 27.2583 16.7858Z" fill="#E9751C"/>
<path d="M30.041 16.7979H5.28041C3.90094 16.7979 2.78275 15.6797 2.78275 14.3002V10.6408C2.78275 9.26144 3.90094 8.14314 5.28041 8.14314H30.0409C31.4203 8.14314 32.5386 9.26134 32.5386 10.6408V14.3002C32.5386 15.6797 31.4204 16.7979 30.041 16.7979Z" fill="#F7C02D"/>
<path d="M30.041 14.349H5.28041C3.90094 14.349 2.78275 13.2308 2.78275 11.8513V14.3002C2.78275 15.6796 3.90094 16.7978 5.28041 16.7978H30.0409C31.4203 16.7978 32.5386 15.6796 32.5386 14.3002V11.8513C32.5386 13.2308 31.4204 14.349 30.041 14.349Z" fill="#F39624"/>
<path d="M30.041 8.14304H17.6607V16.7978H30.041C31.4204 16.7978 32.5387 15.6796 32.5387 14.3002V10.6408C32.5386 9.26123 31.4204 8.14304 30.041 8.14304Z" fill="#F39624"/>
<path d="M36.1111 42.8569C44.334 42.8569 50.9999 36.1909 50.9999 27.9681C50.9999 19.7452 44.334 13.0793 36.1111 13.0793C27.8883 13.0793 21.2224 19.7452 21.2224 27.9681C21.2224 36.1909 27.8883 42.8569 36.1111 42.8569Z" fill="#F7C02D"/>
<path d="M36.1108 13.0801V42.8569C44.3336 42.8569 50.9992 36.1913 50.9992 27.9686C50.9992 19.7458 44.3336 13.0801 36.1108 13.0801Z" fill="#E9751C"/>
<path d="M36.1111 39.7002C42.5906 39.7002 47.8432 34.4475 47.8432 27.9681C47.8432 21.4886 42.5906 16.236 36.1111 16.236C29.6317 16.236 24.379 21.4886 24.379 27.9681C24.379 34.4475 29.6317 39.7002 36.1111 39.7002Z" fill="#FBE27B"/>
<path d="M35.5614 34.4492C33.2479 34.3722 31.3585 33.1767 31.3585 31.9428C31.3585 31.2873 31.9367 30.3234 32.6695 30.3234C33.4792 30.3234 34.1346 31.4609 35.5613 31.7116V28.5883C33.7876 27.9135 31.7054 27.0846 31.7054 24.6168C31.7054 22.1683 33.5176 20.9922 35.5613 20.7031V20.1632C35.5613 19.8933 35.8698 19.6427 36.2939 19.6427C36.6601 19.6427 37.0264 19.8934 37.0264 20.1632V20.6452C38.2218 20.6838 40.4774 20.9922 40.4774 22.3224C40.4774 22.843 40.1304 23.9032 39.282 23.9032C38.6457 23.9032 38.2796 23.2863 37.0263 23.1899V26.0047C38.7808 26.6602 40.8244 27.5663 40.8244 30.1689C40.8244 32.5596 39.282 34.0055 37.0263 34.3719V34.9309C37.0263 35.2008 36.6599 35.4514 36.2938 35.4514C35.8696 35.4514 35.5612 35.2007 35.5612 34.9309V34.4492H35.5614ZM35.7542 25.5422V23.2481C34.8865 23.4216 34.5204 23.865 34.5204 24.3276C34.5203 24.8867 35.0215 25.2337 35.7542 25.5422ZM36.8338 29.1088V31.6923C37.4893 31.538 38.0097 31.1718 38.0097 30.4777C38.0098 29.8415 37.5279 29.4366 36.8338 29.1088Z" fill="#E9751C"/>
</svg>
