<svg width="52" height="52" viewBox="0 0 52 52" fill="none" xmlns="http://www.w3.org/2000/svg">
<path d="M25.5 47C36.8218 47 46 37.598 46 26C46 14.402 36.8218 5 25.5 5C14.1782 5 5 14.402 5 26C5 37.598 14.1782 47 25.5 47Z" fill="#56778C"/>
<path d="M30.4098 46C38.916 43.8503 45.3361 36.3608 46 27.2478L36.8733 18L25.6254 30.8544L21 36.4654L30.4098 46Z" fill="#415B6B"/>
<path d="M36.9735 17.966C32.4111 17.6331 29.486 15.7366 27.7313 14H23.2686C21.514 15.7367 18.5889 17.6331 14.0265 17.966C14.0265 17.966 12.8907 34.2549 25.5 39C38.1093 34.2549 36.9735 17.966 36.9735 17.966Z" fill="#FFD15D"/>
<path d="M36.9748 17.966C32.6282 17.6331 29.8415 15.7366 28.1698 14H26V38.9816C26.015 38.9875 26.0291 38.9941 26.0441 39C38.0568 34.2549 36.9748 17.966 36.9748 17.966Z" fill="#F9B54C"/>
<path d="M35.977 19.3314C32.0096 19.0517 29.466 17.4588 27.9403 16H24.0597C22.5339 17.4588 19.9903 19.0519 16.023 19.3314C16.023 19.3314 15.0354 33.0141 26 37C36.9647 33.0143 35.977 19.3314 35.977 19.3314Z" fill="#FC6F58"/>
<path d="M35.9771 19.3314C32.0288 19.0517 29.4974 17.4588 27.979 16H26V36.9815C26.0163 36.9874 26.0317 36.994 26.048 37C36.9601 33.0143 35.9771 19.3314 35.9771 19.3314Z" fill="#F1543F"/>
</svg>
