<svg width="37" height="37" viewBox="0 0 37 37" fill="none" xmlns="http://www.w3.org/2000/svg">
<path fill-rule="evenodd" clip-rule="evenodd" d="M9.25 1.54167C6.69569 1.54167 4.625 3.61236 4.625 6.16667V30.8333C4.625 33.3877 6.69569 35.4583 9.25 35.4583H27.75C30.3044 35.4583 32.375 33.3877 32.375 30.8333V13.6105C32.375 12.3839 31.8877 11.2075 31.0203 10.3401L23.5766 2.8963C22.7092 2.02895 21.5328 1.54167 20.3062 1.54167H9.25ZM7.70833 6.16667C7.70833 5.31524 8.39857 4.625 9.25 4.625H18.5V12.3333C18.5 14.0362 19.8804 15.4167 21.5833 15.4167H29.2917V30.8333C29.2917 31.6848 28.6015 32.375 27.75 32.375H9.25C8.39857 32.375 7.70833 31.6848 7.70833 30.8333V6.16667ZM28.6531 12.3333L21.5833 5.26358V12.3333H28.6531Z" fill="#011F26"/>
</svg>
