<svg width="52" height="52" viewBox="0 0 52 52" fill="none" xmlns="http://www.w3.org/2000/svg">
<path d="M43.826 16.8672L35.2107 8.2541C34.3321 7.37547 32.9079 7.37547 32.0293 8.2541L8.48535 31.8V43.5951H20.2826L43.826 20.0515C44.7051 19.1701 44.7051 17.7486 43.826 16.8672ZM18.6103 39.0951H12.9853V33.47L13.0821 33.3733L18.7071 38.9983L18.6103 39.0951ZM21.8885 35.8168L16.2636 30.1918L33.2353 13.2199L38.8602 18.8449L21.8885 35.8168Z" fill="#011F26"/>
<path d="M18.6103 39.0951H12.9854V33.47L13.0821 33.3733L18.7071 38.9983L18.6103 39.0951Z" fill="#EBEEF2"/>
<path d="M38.8602 18.8446L33.2353 13.2197L16.264 30.1911L21.8889 35.816L38.8602 18.8446Z" fill="#A3B2BF"/>
</svg>
