<svg width="38" height="38" viewBox="0 0 38 38" fill="none" xmlns="http://www.w3.org/2000/svg">
<path d="M26.5577 17.3128H22.457C22.032 17.3128 21.6874 16.968 21.6874 16.5432V12.4422C21.6874 12.0173 21.3429 11.6729 20.9179 11.6729H18.082C17.657 11.6729 17.3124 12.0173 17.3124 12.4422V16.5432C17.3124 16.968 16.9679 17.3128 16.5429 17.3128H12.4422C12.017 17.3128 11.6726 17.6572 11.6726 18.0824V20.9182C11.6726 21.343 12.017 21.6878 12.4422 21.6878H16.5429C16.9679 21.6878 17.3124 22.0322 17.3124 22.4574V26.5578C17.3124 26.983 17.657 27.3274 18.082 27.3274H20.9179C21.3429 27.3274 21.6874 26.983 21.6874 26.5578V22.4574C21.6874 22.0322 22.032 21.6878 22.457 21.6878H26.5577C26.9827 21.6878 27.3273 21.343 27.3273 20.9182V18.0824C27.3273 17.6572 26.9827 17.3128 26.5577 17.3128Z" fill="#011F26"/>
<path d="M19.5 2C9.83487 2 2 9.83515 2 19.5C2 29.1651 9.83487 37 19.5 37C29.1649 37 37 29.1651 37 19.5C37 9.83515 29.1649 2 19.5 2ZM19.5 32.625C12.2627 32.625 6.375 26.7373 6.375 19.5C6.375 12.263 12.2627 6.375 19.5 6.375C26.737 6.375 32.625 12.263 32.625 19.5C32.625 26.7373 26.737 32.625 19.5 32.625Z" fill="#011F26"/>
</svg>
