<svg width="37" height="37" viewBox="0 0 37 37" fill="none" xmlns="http://www.w3.org/2000/svg">
<path d="M31.9925 8.51206C31.9925 7.6756 31.5209 7 30.9371 7H6.05545C5.47158 7 5 7.6756 5 8.51206V11H32V8.51206H31.9925Z" fill="#A3B2BF"/>
<path d="M28.8871 35C29.5027 35 30 34.5302 30 33.9484V12H7V33.9484C7 34.5302 7.49725 35 8.1129 35H28.8871Z" fill="#EBEEF2"/>
<path d="M26.9629 15.0153H10.0371V32.9367H26.9629V15.0153Z" fill="#315259"/>
<path d="M30.7338 5.63964H25.6045V3.07418C25.6045 1.38084 24.1982 0 22.4736 0L14.3911 0C12.6665 0 11.2602 1.38084 11.2602 3.07418V5.63964H6.13088C4.40631 5.63964 3 7.02047 3 8.71382V11.4319C3 11.9988 3.4663 12.4566 4.04363 12.4566H5.55356V33.8451C5.55356 35.5384 6.95986 36.9193 8.68444 36.9193H28.1729C29.8975 36.9193 31.3038 35.5384 31.3038 33.8451V12.4566H32.8211C33.3984 12.4566 33.8647 11.9988 33.8647 11.4319V8.71382C33.8647 7.02047 32.4658 5.63964 30.7338 5.63964ZM13.3475 3.07418C13.3475 2.50731 13.8138 2.04946 14.3911 2.04946H22.4736C23.051 2.04946 23.5173 2.50731 23.5173 3.07418V5.63964H13.3475V3.07418ZM29.2165 33.8451C29.2165 34.412 28.7502 34.8698 28.1729 34.8698H8.69184C8.11451 34.8698 7.64821 34.412 7.64821 33.8451V12.4566H29.2239V33.8451H29.2165ZM31.7775 10.4072H5.08725V8.72109C5.08725 8.15421 5.55356 7.69636 6.13088 7.69636H30.7338C31.3112 7.69636 31.7775 8.15421 31.7775 8.72109V10.4072Z" fill="#011F26"/>
<path d="M12.9774 31.534C13.5547 31.534 14.021 31.0761 14.021 30.5093V16.8172C14.021 16.2503 13.5547 15.7924 12.9774 15.7924C12.4 15.7924 11.9337 16.2503 11.9337 16.8172V30.5165C11.9337 31.0761 12.4 31.534 12.9774 31.534Z" fill="#011F26"/>
<path d="M18.4324 31.534C19.0097 31.534 19.476 31.0761 19.476 30.5093V16.8172C19.476 16.2503 19.0097 15.7924 18.4324 15.7924C17.855 15.7924 17.3887 16.2503 17.3887 16.8172V30.5165C17.3887 31.0761 17.855 31.534 18.4324 31.534Z" fill="#011F26"/>
<path d="M23.8874 31.534C24.4647 31.534 24.931 31.0761 24.931 30.5093V16.8172C24.931 16.2503 24.4647 15.7924 23.8874 15.7924C23.31 15.7924 22.8437 16.2503 22.8437 16.8172V30.5165C22.8437 31.0761 23.31 31.534 23.8874 31.534Z" fill="#011F26"/>
</svg>
