<svg width="38" height="39" viewBox="0 0 38 39" fill="none" xmlns="http://www.w3.org/2000/svg">
<path d="M29.9113 4.01576C29.5006 4.01576 29.1068 4.1789 28.8164 4.46928C28.526 4.75967 28.3628 5.15352 28.3628 5.56419V9.17201C26.3614 7.38186 23.8855 6.20804 21.2327 5.79173C18.58 5.37543 15.8635 5.73437 13.4099 6.82539C10.9564 7.9164 8.87027 9.69303 7.40251 11.9416C5.93476 14.1901 5.14787 16.8148 5.13649 19.5C5.13649 19.9107 5.29963 20.3045 5.59001 20.5949C5.8804 20.8853 6.27425 21.0484 6.68491 21.0484C7.09558 21.0484 7.48943 20.8853 7.77981 20.5949C8.0702 20.3045 8.23334 19.9107 8.23334 19.5C8.2448 17.3778 8.87898 15.3057 10.0572 13.5407C11.2355 11.7756 12.906 10.3953 14.8615 9.57085C16.817 8.74644 18.9715 8.51422 21.0578 8.90299C23.1441 9.29177 25.0703 10.2844 26.5976 11.7579H22.1691C21.7585 11.7579 21.3646 11.921 21.0742 12.2114C20.7839 12.5018 20.6207 12.8956 20.6207 13.3063C20.6207 13.717 20.7839 14.1108 21.0742 14.4012C21.3646 14.6916 21.7585 14.8547 22.1691 14.8547H29.9113C30.3219 14.8547 30.7158 14.6916 31.0062 14.4012C31.2966 14.1108 31.4597 13.717 31.4597 13.3063V5.56419C31.4597 5.15352 31.2966 4.75967 31.0062 4.46928C30.7158 4.1789 30.3219 4.01576 29.9113 4.01576Z" fill="#011F26"/>
<path d="M31.4597 17.9516C31.049 17.9516 30.6552 18.1147 30.3648 18.4051C30.0744 18.6955 29.9113 19.0893 29.9113 19.5C29.9086 21.6315 29.2775 23.7149 28.097 25.4896C26.9164 27.2644 25.2388 28.6516 23.2739 29.4779C21.3091 30.3041 19.1442 30.5327 17.0501 30.1351C14.956 29.7374 13.0257 28.7311 11.5005 27.2421H15.9754C16.3861 27.2421 16.78 27.079 17.0703 26.7886C17.3607 26.4982 17.5239 26.1044 17.5239 25.6937C17.5239 25.283 17.3607 24.8892 17.0703 24.5988C16.78 24.3084 16.3861 24.1453 15.9754 24.1453H8.23333C7.82266 24.1453 7.42881 24.3084 7.13843 24.5988C6.84804 24.8892 6.68491 25.283 6.68491 25.6937V33.4358C6.68491 33.8465 6.84804 34.2403 7.13843 34.5307C7.42881 34.8211 7.82266 34.9842 8.23333 34.9842C8.644 34.9842 9.03784 34.8211 9.32823 34.5307C9.61862 34.2403 9.78175 33.8465 9.78175 33.4358V29.828C11.7832 31.6181 14.2591 32.792 16.9119 33.2083C19.5646 33.6246 22.2811 33.2656 24.7347 32.1746C27.1882 31.0836 29.2743 29.307 30.7421 27.0584C32.2098 24.8099 32.9967 22.1852 33.0081 19.5C33.0081 19.0893 32.845 18.6955 32.5546 18.4051C32.2642 18.1147 31.8703 17.9516 31.4597 17.9516Z" fill="#EBEEF2"/>
</svg>
