<svg width="51" height="51" viewBox="0 0 51 51" fill="none" xmlns="http://www.w3.org/2000/svg">
<g clip-path="url(#clip0_152_118)">
<path fill-rule="evenodd" clip-rule="evenodd" d="M50.2983 15.4124L36.4009 0.793195C35.9189 0.288295 35.2508 0.000366211 34.5521 0.000366211H5.0996C2.2844 0.000366211 -0.000396729 2.28517 -0.000396729 5.10037V22.9504C-0.000396729 24.358 1.142 25.5004 2.5496 25.5004C3.95975 25.5004 5.0996 24.358 5.0996 22.9504V7.65037C5.0996 6.24277 6.242 5.10037 7.6496 5.10037H30.5996V15.3004C30.5996 18.1181 32.8844 20.4004 35.6996 20.4004H45.8996V22.9504C45.8996 24.358 47.042 25.5004 48.4496 25.5004C49.8598 25.5004 50.9996 24.358 50.9996 22.9504V17.1693C50.9996 16.5165 50.7497 15.8867 50.2983 15.4124ZM28.0496 38.2504C28.0496 36.8428 26.9098 35.7004 25.4996 35.7004H22.9496V40.8004H25.4996C26.9098 40.8004 28.0496 39.6605 28.0496 38.2504ZM29.8983 44.4953L31.5074 47.7157C32.2622 49.2253 31.1657 51.0004 29.4776 51.0004H29.4521C28.5927 51.0004 27.8073 50.5157 27.4223 49.7456L25.4996 45.9004H22.9496V48.7308C22.9496 49.9854 21.9347 51.0004 20.6801 51.0004H20.1191C18.8671 51.0004 17.8496 49.9854 17.8496 48.7308V32.8699C17.8496 31.6179 18.8671 30.6004 20.1191 30.6004H25.1247C29.1078 30.6004 32.7008 33.4818 33.1088 37.4445C33.4097 40.3566 32.0633 42.9678 29.8983 44.4953ZM48.4496 45.9004H42.0746C41.3708 45.9004 40.7996 45.3292 40.7996 44.6254V33.1504C40.7996 31.7428 39.6598 30.6004 38.2496 30.6004C36.842 30.6004 35.6996 31.7428 35.6996 33.1504V45.9004V48.4504C35.6996 49.858 36.842 51.0004 38.2496 51.0004H40.7996H48.4496C49.8598 51.0004 50.9996 49.858 50.9996 48.4504C50.9996 47.0428 49.8598 45.9004 48.4496 45.9004ZM15.2996 32.8699V43.3504C15.2996 47.7134 11.6505 51.2221 7.23905 50.9901C3.10295 50.7733 -0.000396729 47.0605 -0.000396729 42.9168V32.8699C-0.000396729 31.6179 1.01705 30.6004 2.2691 30.6004H2.8301C4.0847 30.6004 5.0996 31.6179 5.0996 32.8699V43.3504C5.0996 44.758 6.242 45.9004 7.6496 45.9004C9.05975 45.9004 10.1996 44.758 10.1996 43.3504V32.8699C10.1996 31.6179 11.2171 30.6004 12.4691 30.6004H13.0301C14.2847 30.6004 15.2996 31.6179 15.2996 32.8699Z" fill="#415B6B"/>
</g>
<defs>
<clipPath id="clip0_152_118">
<rect width="51" height="51" fill="white"/>
</clipPath>
</defs>
</svg>
