<svg width="52" height="52" viewBox="0 0 52 52" fill="none" xmlns="http://www.w3.org/2000/svg">
<g clip-path="url(#clip0_109_353)">
<path d="M17.7185 23.3959L9.60286 6.65628L8.56125 11.1736L9.60286 13.8138L14.9088 24.7582L17.7185 23.3959Z" fill="#F7C02D"/>
<path d="M50.9551 23.3959L42.8396 6.65628L41.7979 11.1736L42.8396 13.8138L48.1454 24.7582L50.9551 23.3959Z" fill="#F7C02D"/>
<path d="M9.60277 6.65617L1.48721 23.3959L4.29689 24.7582L9.60277 13.8138H9.60287V6.65627L9.60277 6.65617Z" fill="#FBE27B"/>
<path d="M42.8395 6.65617L34.7239 23.3959L37.5335 24.7582L42.8395 13.8138H42.8396V6.65627L42.8395 6.65617Z" fill="#FBE27B"/>
<path d="M28.4206 2.82557C28.4206 1.61123 27.4362 0.626892 26.222 0.626892L25.1804 48.7179L28.4206 46.6347V2.82557Z" fill="#F39624"/>
<path d="M24.0232 2.82557V46.6346L26.2219 48.7178V0.626892C25.0075 0.626892 24.0232 1.61123 24.0232 2.82557Z" fill="#F7C02D"/>
<path d="M39.2691 51.626C39.2691 48.8693 37.0342 46.6344 34.2774 46.6344H26.222L24.1387 49.2667L26.222 51.6261L39.2691 51.626Z" fill="#E9751C"/>
<path d="M13.1748 51.626H26.222V46.6344H18.1665C15.4096 46.6344 13.1748 48.8692 13.1748 51.626Z" fill="#F39624"/>
<path d="M49.0229 6.41881H26.222L25.1804 7.97998L26.222 9.54116H49.0229V6.41881Z" fill="#E9751C"/>
<path d="M26.2215 6.41881H3.41953V9.54126H26.2215V6.41881Z" fill="#F39624"/>
<path d="M9.60288 22.7731L7.51965 27.41L9.60288 33.3293C14.508 33.3293 18.4845 29.3528 18.4845 24.4478V22.7733H9.60288V22.7731Z" fill="#F39624"/>
<path d="M0.721222 22.7731V24.4476C0.721222 29.3527 4.69772 33.3291 9.60288 33.3291V22.7731H0.721222Z" fill="#F7C02D"/>
<path d="M42.8396 22.7731L40.7563 27.2018L42.8396 33.3292C47.7448 33.3292 51.7212 29.3527 51.7212 24.4477V22.7732H42.8396V22.7731Z" fill="#F39624"/>
<path d="M33.9578 22.7731V24.4476C33.9578 29.3527 37.9343 33.3291 42.8395 33.3291V22.7731H33.9578Z" fill="#F7C02D"/>
</g>
<defs>
<clipPath id="clip0_109_353">
<rect width="51" height="51" fill="white" transform="translate(0.721222 0.626434)"/>
</clipPath>
</defs>
</svg>
